<svg xmlns="http://www.w3.org/2000/svg" viewBox="0 0 22.83 42.52"><title>num 3</title><g id="Layer_2" data-name="Layer 2"><g id="Layer_1-2" data-name="Layer 1"><path d="M20.46,4C16-1.34,8.76-.56,3,1.87c-5.25,2.2-2.95,11,2.38,8.78A21.6,21.6,0,0,1,10.74,9a5.61,5.61,0,0,1,.36,2.4,5.75,5.75,0,0,1-.49,2.08C10.07,14.65,9.4,15.8,8.79,17,7,20.33,8.11,24.65,11.1,26.35l.68.41c0,.17.09.34.12.51.25,1.23.62,3.95-.27,4.91-1.46,1.58-2,.25-3.42-.61h0a4.94,4.94,0,0,0-2-1.13,1.62,1.62,0,0,0-2-.2l-.14.09a4.59,4.59,0,0,0-2.35,1.25,4.61,4.61,0,0,0,0,6.44l.18.15a4.38,4.38,0,0,0,1.44,1.1c2.9,1.43,4.6,3.61,8.18,3.23a9.76,9.76,0,0,0,7.07-4.42,16.39,16.39,0,0,0,2.41-9,19.67,19.67,0,0,0-.92-5.69c-.33-1.05-1.66-3.22-1.46-4s2.14-2.15,2.62-2.93a10.49,10.49,0,0,0,1.52-4.55A10.65,10.65,0,0,0,20.46,4Z"/></g></g></svg>