<svg xmlns="http://www.w3.org/2000/svg" viewBox="0 0 19.94 42.13"><title>num 6</title><g id="Layer_2" data-name="Layer 2"><g id="Layer_1-2" data-name="Layer 1"><path d="M9.5,20.54c.25-.62.43-1.11.64-1.59a10.69,10.69,0,0,1,1-2.07c1.65-2.22,4.16-2.21,5.78,0a16.74,16.74,0,0,1,2.7,7.58,23.51,23.51,0,0,1-1.74,13.1c-2,4.7-6.1,5.73-10.28,2.91-2.43-1.64-3.69-4-5.15-6.46C0,30,0,25.7.22,21.29c.2-3.29.58-6.58.94-9.86A9.08,9.08,0,0,1,4.91,5c1.77-1.34,3.86-2.25,5.54-3.7A5.47,5.47,0,0,1,14.68.1,3.3,3.3,0,0,1,18,4.5a8.57,8.57,0,0,1-3.46,5.4c-1.78,1.2-3.65,2.31-4.81,4.3-1,1.79-1,3.7-.78,5.65a.65.65,0,0,0,.15.31A4.27,4.27,0,0,0,9.5,20.54Z"/><path d="M9.5,20.54l.7-1.76A11.15,11.15,0,0,1,11,17a3.76,3.76,0,0,1,3.15-1.85,4,4,0,0,1,3.06,2,13.53,13.53,0,0,1,1.63,3.43,24.36,24.36,0,0,1-.13,15,16.16,16.16,0,0,1-1.56,3.47,6.73,6.73,0,0,1-2.83,2.53,5.87,5.87,0,0,1-3.78.28A10.13,10.13,0,0,1,7.1,40.27c-2.08-1.55-3.36-3.84-4.65-6A16.44,16.44,0,0,1,.12,27.07a38.51,38.51,0,0,1,.17-7.6L1,11.9A9.31,9.31,0,0,1,2,8.23,9.54,9.54,0,0,1,4.44,5.28c2-1.61,4.38-2.58,6.28-4.27a5.48,5.48,0,0,1,3.63-1A3.78,3.78,0,0,1,17.7,1.59a4.43,4.43,0,0,1,.1,3.73A9,9,0,0,1,16,8.66,14.92,14.92,0,0,1,13,11a11.59,11.59,0,0,0-2.8,2.53A6.63,6.63,0,0,0,8.85,17a13,13,0,0,0,0,1.9l.07.95C9,20.16,9.28,20.32,9.5,20.54Zm0,0c-.21-.22-.55-.37-.6-.71l-.07-.95a13,13,0,0,1,0-1.9,6.67,6.67,0,0,1,1.31-3.52,11.66,11.66,0,0,1,2.79-2.57,14.83,14.83,0,0,0,3-2.32,8.88,8.88,0,0,0,1.77-3.3,4.3,4.3,0,0,0-.1-3.61A3.63,3.63,0,0,0,14.35.16a5.31,5.31,0,0,0-3.53,1C8.92,2.85,6.5,3.84,4.56,5.43a9,9,0,0,0-3.34,6.5L.51,19.48A38.43,38.43,0,0,0,.37,27a16.2,16.2,0,0,0,2.28,7.12c1.29,2.16,2.55,4.42,4.58,5.94a9.93,9.93,0,0,0,3.35,1.65,5.67,5.67,0,0,0,3.66-.25A6.55,6.55,0,0,0,17,39a16,16,0,0,0,1.56-3.43,24.24,24.24,0,0,0,.17-14.9,13.42,13.42,0,0,0-1.59-3.42,3.89,3.89,0,0,0-3-2A3.71,3.71,0,0,0,11,17.06a11.14,11.14,0,0,0-.8,1.72Z"/></g></g></svg>