<?xml version="1.0" standalone="no"?>
<!DOCTYPE svg PUBLIC "-//W3C//DTD SVG 1.1//EN" "http://www.w3.org/Graphics/SVG/1.1/DTD/svg11.dtd" >
<svg xmlns="http://www.w3.org/2000/svg" xmlns:xlink="http://www.w3.org/1999/xlink" version="1.1">
<metadata>
Created by FontForge 20160405 at Mon May  8 15:52:47 2017
 By www-data
</metadata>
<defs>
<font id="Endutt" horiz-adv-x="250" >
  <font-face 
    font-family="Endutt"
    font-weight="400"
    font-stretch="normal"
    units-per-em="1000"
    panose-1="2 0 5 3 0 0 0 0 0 0"
    ascent="800"
    descent="-200"
    x-height="452"
    cap-height="685"
    bbox="-135.035 -346.682 1154.94 837.572"
    underline-thickness="50"
    underline-position="-100"
    unicode-range="U+0020-00AF"
  />
<missing-glyph 
 />
    <glyph glyph-name=".notdef" unicode="&#xaf;" 
 />
    <glyph glyph-name=".notdef" unicode="&#xfffd;" 
 />
    <glyph glyph-name=".notdef" unicode="&#x2044;" 
 />
    <glyph glyph-name=".notdef" unicode="&#x2030;" 
 />
    <glyph glyph-name=".notdef" unicode="&#x2026;" 
 />
    <glyph glyph-name=".notdef" unicode="&#x192;" 
 />
    <glyph glyph-name=".notdef" unicode="&#x131;" 
 />
    <glyph glyph-name=".notdef" unicode="&#xf8;" 
 />
    <glyph glyph-name=".notdef" unicode="&#xe6;" 
 />
    <glyph glyph-name=".notdef" unicode="&#xdf;" 
 />
    <glyph glyph-name=".notdef" unicode="&#xd8;" 
 />
    <glyph glyph-name=".notdef" unicode="&#xc6;" 
 />
    <glyph glyph-name=".notdef" unicode="&#xbf;" 
 />
    <glyph glyph-name=".notdef" unicode="&#xb4;" 
 />
    <glyph glyph-name="space" unicode=" " 
 />
    <glyph glyph-name="exclam" unicode="!" horiz-adv-x="286" 
d="M227 490c9 86 26 256 -79 252c-119 -5 -116 -164 -116 -264c0 -62 -17 -276 75 -273c98 2 112 208 120 285zM20 63v-3c0 -48 32 -86 82 -78c44 6 86 35 86 83c0 29 -28 87 -73 87c-81 0 -95 -65 -95 -89z" />
    <glyph glyph-name="ampersand" unicode="&#x26;" horiz-adv-x="636" 
d="M376 329l-2 -2c-7 6 -31 18 -37 23c39 36 54 80 49 122c-8 74 -75 142 -163 144c-64 1 -150 -43 -161 -138c-8 -76 27 -110 50 -130c-50 -64 -131 -159 -118 -244c13 -88 87 -109 167 -106c88 2 137 30 199 104c16 -9 32 -26 49 -39c36 -28 62 -54 127 -43
c64 11 78 38 28 111c-22 31 -45 55 -74 79c16 23 34 42 50 62c35 42 58 115 11 148c-60 43 -92 -11 -129 -53c-15 -17 -35 -36 -46 -38z" />
    <glyph glyph-name="comma" unicode="," horiz-adv-x="253" 
d="M138 102v-7c-10 15 -46 50 -96 17c-28 -18 -22 -66 -10 -84c13 -20 33 -27 53 -26c-8 -15 -33 -31 -2 -40c13 -4 30 -2 40 7c17 14 26 39 28 66c2 25 -3 51 -13 67z" />
    <glyph glyph-name="period" unicode="." horiz-adv-x="253" 
d="M20 67c0 -35 24 -65 61 -60c33 4 64 26 64 62c0 21 -20 65 -54 65c-60 0 -71 -49 -71 -67z" />
    <glyph glyph-name="slash" unicode="/" horiz-adv-x="636" 
d="M216 460l-1 -1c-68 -75 -153 -163 -191 -259c-24 -59 -40 -128 -1 -184c75 -102 176 -3 235 58c68 71 130 158 158 195c50 69 100 139 139 214c28 53 84 179 23 227c-57 45 -185 -66 -225 -104c-48 -45 -93 -97 -137 -146z" />
    <glyph glyph-name="colon" unicode=":" horiz-adv-x="223" 
d="M20 123c0 -36 24 -65 61 -60c33 4 64 25 64 61c0 22 -20 66 -54 66c-60 0 -71 -49 -71 -67zM20 337c0 -35 24 -65 61 -60c33 4 64 26 64 62c0 21 -20 65 -54 65c-60 0 -71 -49 -71 -67z" />
    <glyph glyph-name="semicolon" unicode=";" horiz-adv-x="223" 
d="M20 354c0 -36 24 -65 61 -60c33 4 64 25 64 61c0 22 -20 66 -54 66c-60 0 -71 -50 -71 -67zM135 174c-10 15 -45 51 -96 17c-28 -18 -21 -66 -10 -84c13 -19 33 -26 53 -26c-8 -16 -33 -33 -1 -44c13 -4 29 -3 39 4c17 13 26 40 28 67c2 25 -2 50 -13 66z" />
    <glyph glyph-name="question" unicode="?" horiz-adv-x="508" 
d="M179 224h-1c71 -40 98 -9 137 35c77 87 165 65 166 240c1 152 -84 219 -228 239c-108 15 -196 0 -241 -112c-24 -64 -6 -133 69 -144c109 -16 63 79 117 125c92 30 133 -20 122 -91c-11 -75 -53 -89 -113 -121c-63 -34 -103 -129 -28 -171zM218 145v-3
c-42 0 -101 -2 -101 -79c0 -44 49 -71 81 -70c42 1 92 28 92 82c0 31 -39 70 -72 70z" />
    <glyph glyph-name="at" unicode="@" horiz-adv-x="717" 
d="M103 49v-5c47 -63 116 -123 193 -131c75 -8 164 11 164 101c0 57 -85 52 -122 49c-63 -6 -125 18 -162 71c-32 48 -39 135 -34 193c8 101 70 202 177 214c65 7 165 -61 167 -140c2 -52 -29 -106 -83 -106c-19 49 -56 97 -103 100c-80 5 -128 -107 -124 -175
c3 -71 48 -132 123 -130c49 1 78 15 97 59c15 -32 58 -45 92 -44c134 6 195 133 191 253c-3 79 -36 148 -88 202c-63 66 -155 107 -248 111c-188 7 -306 -131 -321 -311c-9 -111 18 -223 81 -311z" />
    <glyph glyph-name="A" unicode="A" horiz-adv-x="718" 
d="M36 135l-1 -1c-48 -108 -35 -130 47 -134c79 -1 103 24 124 58c28 46 48 97 74 146c12 24 42 31 72 33c39 2 57 -6 72 -29c19 -43 39 -84 62 -124c20 -34 72 -56 121 -47c76 14 63 65 40 127l-102 277c-18 49 -33 106 -57 153c-29 57 -71 101 -145 101
c-68 0 -77 -12 -124 -113c-68 -145 -116 -301 -183 -447z" />
    <glyph glyph-name="B" unicode="B" horiz-adv-x="530" 
d="M26 638v-2c-21 -30 -22 -116 -17 -206c4 -86 15 -176 21 -225c10 -73 29 -153 77 -186c35 -22 84 -25 158 -10c120 26 211 63 229 178c11 69 4 132 -67 164c-51 24 -119 26 -169 28c47 23 112 59 98 164c-7 45 -43 86 -86 114c-33 21 -79 35 -123 35
c-48 0 -95 -15 -121 -54z" />
    <glyph glyph-name="C" unicode="C" horiz-adv-x="528" 
d="M4 350h-1c-6 -76 14 -163 57 -228c41 -63 101 -93 166 -98c96 -6 304 76 267 200c-14 44 -141 21 -183 31c-53 13 -87 50 -97 112c-9 58 18 98 64 132c53 39 92 62 92 112s-59 98 -157 91c-89 -6 -138 -89 -167 -166c-23 -59 -35 -123 -41 -186z" />
    <glyph glyph-name="D" unicode="D" horiz-adv-x="517" 
d="M34 82l-1 -2c6 -79 66 -89 129 -86c117 6 196 59 247 137c48 74 70 169 73 266c4 120 -73 206 -173 253c-75 35 -161 48 -237 37c-84 -13 -72 -63 -66 -128c8 -76 13 -147 17 -226c3 -96 7 -193 11 -251z" />
    <glyph glyph-name="E" unicode="E" horiz-adv-x="498" 
d="M8 285c-1 -48 3 -96 9 -142c12 -96 62 -123 154 -125c37 -2 96 -5 151 0c75 8 143 32 135 103c-4 42 -38 60 -78 67c-34 7 -73 6 -101 5c0 10 0 53 -1 60c35 -1 72 0 104 2c42 2 80 17 84 74c3 49 -31 67 -78 79c-39 10 -92 4 -121 3c1 27 0 45 -1 83c47 -1 69 -3 119 4
c32 5 63 32 73 79c27 125 -102 116 -183 116c-71 0 -148 -5 -173 -15c-42 -18 -65 -65 -77 -157c-11 -85 -14 -180 -16 -236z" />
    <glyph glyph-name="F" unicode="F" horiz-adv-x="521" 
d="M17 415v-1c3 -59 8 -158 22 -247c21 -137 62 -176 154 -167c76 7 95 93 97 179c1 47 -2 95 -4 128c30 -1 86 1 127 12c48 14 83 33 79 84c-6 60 -46 75 -90 76c-33 2 -71 -5 -108 -6c1 7 3 33 3 43c29 0 70 0 106 8c41 9 77 28 80 72c6 74 -65 98 -144 104
c-57 5 -119 0 -158 -2c-96 -5 -148 -35 -158 -135c-5 -48 -8 -98 -6 -148z" />
    <glyph glyph-name="G" unicode="G" horiz-adv-x="513" 
d="M457 597c-5 79 -104 100 -167 96c-42 -3 -92 -16 -146 -51c-98 -87 -137 -208 -135 -333c3 -132 66 -281 220 -282c104 -1 205 74 233 174c27 97 11 208 -115 208c-24 0 -61 -9 -89 -26c-31 -18 -52 -46 -34 -80c10 -20 89 -25 60 -70c-21 -35 -51 -31 -76 0
c-30 37 -38 79 -30 118c27 130 117 128 211 162c39 14 72 37 68 84z" />
    <glyph glyph-name="H" unicode="H" horiz-adv-x="649" 
d="M263 572c-5 88 -43 128 -126 123c-110 -7 -114 -79 -117 -174c-4 -125 -10 -251 -10 -375c0 -102 6 -141 109 -142c80 0 95 47 107 137c8 60 6 64 14 107c32 19 114 10 139 -8c17 -93 -27 -206 109 -224c66 -9 97 37 111 98c19 80 7 188 8 228c1 83 -3 126 0 223
c3 94 -50 117 -95 120c-47 4 -81 -16 -105 -83c-21 -60 -19 -134 -24 -178c-42 -6 -73 -12 -123 0c0 21 6 95 3 148z" />
    <glyph glyph-name="I" unicode="I" horiz-adv-x="337" 
d="M35 130c1 -63 25 -118 135 -118c128 0 112 126 118 234c1 31 2 62 2 94c-1 62 -5 124 -12 185c-9 89 -35 160 -133 160c-24 -8 -123 18 -118 -171c-4 -130 -6 -255 8 -384z" />
    <glyph glyph-name="J" unicode="J" horiz-adv-x="465" 
d="M0 114c0 -83 111 -107 187 -107c39 0 74 3 104 11c130 35 139 167 144 279c3 72 1 144 -8 215c-20 176 -72 187 -128 183c-75 -7 -85 -55 -91 -180c-4 -86 5 -211 8 -293c-75 0 -216 33 -216 -108z" />
    <glyph glyph-name="K" unicode="K" horiz-adv-x="578" 
d="M141 687c-60 -5 -77 -37 -94 -80c-17 -38 -22 -81 -29 -124c-7 -105 -13 -224 13 -331c20 -82 46 -150 142 -143c72 5 69 28 98 151c13 -15 34 -34 52 -50c45 -40 120 -109 181 -52c25 24 36 60 35 96c0 24 -13 66 -29 108c-16 41 -58 86 -72 109c48 73 127 138 117 248
c-3 39 -24 65 -82 63c-52 -1 -81 -30 -115 -66c-34 -35 -82 -118 -92 -143c0 22 -4 55 -12 88c-16 65 -50 131 -113 126z" />
    <glyph glyph-name="L" unicode="L" horiz-adv-x="518" 
d="M26 151c21 -121 73 -147 158 -148c63 0 134 9 198 17c62 7 111 51 111 114c-2 123 -168 94 -241 99c0 33 3 103 4 140c3 57 17 124 10 183c-10 82 -60 142 -148 137c-73 -4 -106 -53 -106 -136c0 -124 -7 -284 14 -406z" />
    <glyph glyph-name="M" unicode="M" horiz-adv-x="971" 
d="M19 178c-6 -130 3 -168 71 -171c107 -6 111 40 131 140c6 27 18 135 48 140c33 5 67 -115 77 -141c19 -49 66 -100 114 -95c66 7 91 96 109 151c25 80 65 168 110 46c18 -33 34 -67 55 -99c53 -79 117 -61 152 -39c42 27 60 67 62 112c5 93 -58 206 -106 269
c-54 70 -135 211 -231 196c-143 -21 -135 -217 -190 -227c-57 -11 -45 113 -116 181c-29 28 -68 35 -140 36c-97 2 -120 -89 -129 -205c-7 -98 -12 -196 -17 -294z" />
    <glyph glyph-name="N" unicode="N" horiz-adv-x="748" 
d="M359 214c1 15 1 34 2 60c61 -85 107 -255 226 -249c127 8 118 261 122 359c13 285 -16 321 -108 324c-194 7 -124 -138 -144 -229c-76 89 -171 226 -290 210c-98 -12 -128 -61 -138 -135c-6 -45 -10 -116 -10 -190c1 -103 10 -213 35 -267c28 -64 77 -95 145 -91
c140 9 156 68 160 208z" />
    <glyph glyph-name="O" unicode="O" horiz-adv-x="631" 
d="M304 691v-1c-233 1 -297 -130 -296 -336c3 -369 214 -348 289 -348c99 0 304 36 295 375c-4 164 -124 309 -288 310z" />
    <glyph glyph-name="P" unicode="P" horiz-adv-x="541" 
d="M505 461c-19 174 -116 235 -265 230c-163 -5 -234 -107 -225 -303c2 -40 4 -76 8 -131c14 -189 34 -255 118 -255c83 0 123 62 123 162c0 78 -59 174 -23 173c26 0 25 -96 132 -76c90 17 142 110 132 200z" />
    <glyph glyph-name="Q" unicode="Q" horiz-adv-x="586" 
d="M320 14v-5c27 -47 119 -161 182 -94c53 57 -8 126 -39 175c54 30 98 151 97 277c-2 160 -75 328 -288 328c-191 0 -258 -123 -264 -345c-5 -171 59 -352 297 -336h15z" />
    <glyph glyph-name="R" unicode="R" horiz-adv-x="499" 
d="M232 724v-1c-207 -10 -226 -113 -221 -326c2 -73 5 -145 10 -218c8 -110 12 -162 110 -162c79 0 76 116 76 200c37 -35 101 -234 208 -174c117 68 -4 235 -38 271c49 49 99 102 91 207c-10 131 -82 211 -236 203z" />
    <glyph glyph-name="S" unicode="S" horiz-adv-x="474" 
d="M176 686h-1c-127 -16 -202 -119 -162 -243c42 -131 242 -100 242 -187c0 -52 -74 -67 -107 -72c-63 -10 -111 5 -123 -54c-23 -118 108 -125 197 -117c132 13 212 110 221 228c15 206 -229 183 -229 247c0 53 142 26 160 81c30 96 -127 126 -198 117z" />
    <glyph glyph-name="T" unicode="T" horiz-adv-x="663" 
d="M636 565c19 137 -221 125 -312 126c-107 1 -324 13 -319 -138c3 -90 89 -85 201 -92c-4 -72 -11 -155 -13 -217c-3 -78 -5 -234 108 -228c110 6 139 157 151 244c12 86 7 163 4 193c84 22 168 25 180 112z" />
    <glyph glyph-name="U" unicode="U" horiz-adv-x="655" 
d="M9 325c4 -191 90 -317 304 -317c175 0 267 140 283 336c9 104 28 348 -106 348c-122 0 -120 -206 -126 -273c-9 -91 -9 -176 -57 -176c-46 0 -26 143 -27 184c-3 167 -36 266 -132 266c-88 0 -145 -71 -139 -368z" />
    <glyph glyph-name="V" unicode="V" horiz-adv-x="606" 
d="M90 259l-1 -1c32 -76 68 -281 188 -249c89 25 162 208 200 288c77 167 151 378 -1 389c-132 -35 -156 -188 -200 -293c-38 72 -102 284 -221 240c-77 -30 -26 -153 -8 -222c14 -51 30 -101 43 -152z" />
    <glyph glyph-name="W" unicode="W" horiz-adv-x="1236" 
d="M107 684h-1c-80 -23 -140 -89 -85 -303c50 -191 209 -376 292 -374c73 -5 110 44 159 127c19 32 40 69 66 110c39 -91 123 -210 235 -216c90 -6 163 113 225 220c44 75 94 152 125 219c48 101 54 181 -68 201c-64 10 -109 -31 -128 -70c-23 -44 -128 -233 -158 -283
c-42 27 -121 221 -223 212c-49 -4 -91 -29 -125 -65l-89 -136c-51 57 -38 410 -225 358z" />
    <glyph glyph-name="X" unicode="X" horiz-adv-x="678" 
d="M65 36l-1 -1c19 -11 37 -17 56 -18c18 -1 37 2 55 9c18 6 35 16 52 27c16 12 31 25 45 40c8 8 17 18 26 30c10 11 19 24 29 37c9 13 17 27 25 41l38 -50c13 -18 27 -36 42 -54c7 -10 16 -21 24 -32c9 -11 19 -21 29 -31s21 -18 33 -24c11 -6 24 -10 37 -10
c14 0 28 5 44 13c17 10 29 23 36 39c8 16 11 34 11 52c-1 19 -4 38 -11 56s-16 35 -27 50c-12 16 -25 31 -38 47c-14 16 -27 31 -42 45c-14 14 -28 27 -42 39c3 4 9 10 16 19c8 9 16 19 25 31l25 31c8 11 14 19 18 25c9 14 18 29 26 45c7 16 13 33 18 50c4 17 6 35 6 52
c0 18 -4 35 -11 51c-6 13 -14 23 -25 28c-10 5 -22 7 -36 7c-13 -1 -27 -4 -40 -8c-14 -5 -27 -11 -39 -18s-21 -14 -29 -22c-13 -13 -25 -27 -35 -43l-35 -51c-12 -18 -27 -38 -44 -59c-5 7 -11 16 -18 29l-24 44c-10 16 -21 32 -34 49c-12 16 -27 32 -43 46
c-17 14 -35 26 -56 34c-21 9 -44 13 -69 13c-23 0 -40 -4 -53 -12c-12 -8 -20 -19 -24 -33c-4 -13 -5 -28 -3 -44c2 -17 6 -33 11 -50c6 -17 13 -33 20 -47c11 -22 24 -42 39 -59c15 -18 31 -35 49 -52l56 -51c-7 -8 -16 -18 -26 -32l-32 -42l-32 -47
c-10 -16 -19 -30 -26 -43s-13 -26 -18 -39c-6 -14 -9 -27 -11 -40c-1 -13 0 -25 5 -36c5 -12 15 -22 28 -31z" />
    <glyph glyph-name="Y" unicode="Y" horiz-adv-x="706" 
d="M236 132l-1 -1c6 -84 26 -142 125 -131c192 24 43 199 114 319c20 34 50 64 74 100c31 32 70 75 97 118c35 56 49 113 0 151c-45 36 -90 29 -130 2c-81 -54 -158 -194 -182 -223c-32 22 -68 75 -106 120c-58 68 -123 131 -198 91c-69 -37 -30 -114 25 -180
c80 -96 126 -119 153 -189c15 -38 24 -91 29 -177z" />
    <glyph glyph-name="Z" unicode="Z" horiz-adv-x="619" 
d="M-8 91l-4 -1c7 -92 237 -73 310 -72c113 0 244 1 250 119c4 82 -179 82 -231 81c30 33 123 114 177 198c152 230 81 286 -177 277c-55 -2 -129 -6 -192 -26c-75 -23 -133 -68 -132 -156c17 -81 100 -75 176 -56c32 8 129 46 156 32c-5 -10 -179 -181 -203 -208
c-44 -47 -137 -112 -130 -188z" />
    <glyph glyph-name="backslash" unicode="\" horiz-adv-x="598" 
d="M123 308l-1 -4c45 -91 95 -203 170 -273c46 -42 103 -84 170 -66c124 32 70 162 34 239c-41 90 -98 179 -123 219c-45 72 -91 144 -146 209c-39 45 -136 143 -203 105c-61 -37 -6 -197 14 -248c24 -62 56 -122 85 -181z" />
    <glyph glyph-name="a" unicode="a" horiz-adv-x="368" 
d="M0 111l-1 -2c13 -129 138 -118 219 -92s111 135 107 217c-4 76 -56 232 -144 243c-73 9 -132 -20 -153 -93c-8 -28 -2 -79 41 -66c14 4 31 13 50 22c59 27 69 -9 70 -66c-48 11 -69 16 -118 -11c-55 -31 -76 -93 -71 -152z" />
    <glyph glyph-name="b" unicode="b" horiz-adv-x="431" 
d="M173 529h-1c23 73 70 226 -61 234s-105 -204 -105 -321c0 -122 -1 -272 70 -366c40 -52 89 -72 140 -73c50 -1 101 15 135 76c50 88 58 190 21 284c-29 72 -83 130 -160 78c-38 -27 -31 -75 -52 -69c-28 7 0 118 13 157z" />
    <glyph glyph-name="c" unicode="c" horiz-adv-x="380" 
d="M185 4c83 0 172 20 163 97c-6 47 -17 72 -50 82c-61 19 -137 -33 -137 33c0 65 73 64 106 76s44 47 41 75c-6 83 -63 110 -138 93c-111 -26 -165 -132 -164 -243c0 -79 43 -213 179 -213z" />
    <glyph glyph-name="d" unicode="d" horiz-adv-x="431" 
d="M399 558h-2c1 58 -2 196 -82 196c-200 0 -55 -308 -101 -335c-37 -21 -69 75 -153 14c-96 -71 -84 -428 143 -427c164 1 174 170 186 315c7 79 8 158 9 237z" />
    <glyph glyph-name="e" unicode="e" horiz-adv-x="383" 
d="M227 0h-2c89 0 137 65 123 112c-9 30 -44 53 -110 46c-54 -6 -81 -9 -86 65c19 -16 64 -42 121 -18c53 23 84 71 84 129c0 116 -100 153 -176 153s-151 -63 -182 -187c-16 -73 -11 -138 12 -189c33 -70 106 -111 216 -111z" />
    <glyph glyph-name="f" unicode="f" horiz-adv-x="300" 
d="M156 -1l-1 -2c46 1 59 71 60 150c0 81 -13 170 -14 200c28 9 67 18 61 80c-4 50 -41 37 -66 37c-7 47 -12 102 -4 148c22 -9 77 -30 104 27c40 86 -36 120 -112 109c-75 -10 -105 -45 -117 -135c-7 -49 -2 -102 -4 -153c-32 3 -69 -19 -63 -60c5 -35 39 -53 70 -61
c4 -36 -1 -127 7 -206c8 -74 28 -136 79 -134z" />
    <glyph glyph-name="g" unicode="g" horiz-adv-x="430" 
d="M59 -59l-1 -14c-25 -37 -35 -66 -34 -89c2 -74 108 -88 199 -78c102 12 155 74 168 138c16 78 -29 157 -119 144c-12 -1 -58 -9 -51 16c6 20 43 35 81 58c42 24 85 57 92 115c7 56 -18 102 -50 153c35 46 55 170 -18 172c-77 2 -57 -89 -65 -109c-4 -10 -13 -20 -28 -17
c-28 5 -50 12 -75 15c-99 9 -151 -71 -159 -159c-8 -122 30 -156 84 -203c-43 -37 -69 -56 -62 -100c4 -20 21 -30 38 -42z" />
    <glyph glyph-name="h" unicode="h" horiz-adv-x="523" 
d="M219 396l-2 -2c-4 47 -20 259 -21 275c-3 78 -16 177 -102 168c-107 -12 -96 -109 -95 -221c3 -126 17 -382 48 -498c25 -89 35 -148 139 -125c78 16 73 44 68 160c-1 24 -16 105 11 115c31 12 57 -86 70 -147c16 -76 40 -112 100 -78c86 50 66 189 40 278
c-20 70 -47 176 -133 167c-90 -9 -104 -62 -123 -92z" />
    <glyph glyph-name="i" unicode="i" horiz-adv-x="263" 
d="M0 239l-2 -3c7 -118 19 -241 94 -240c122 1 116 201 115 268c0 80 -25 217 -129 205c-83 -10 -80 -167 -78 -230zM2 609c1 -46 48 -91 96 -82c46 9 72 34 77 85c4 41 -40 78 -80 79c-55 0 -94 -39 -93 -82z" />
    <glyph glyph-name="j" unicode="j" horiz-adv-x="293" 
d="M-65 -45l-7 -15c-48 -7 -68 -54 -62 -91c12 -82 99 -111 171 -106c64 4 107 29 138 67c84 106 61 312 64 443c7 213 -44 239 -119 219c-83 -22 -83 -94 -83 -175c0 -141 32 -327 -10 -369c-17 -16 -53 32 -92 27zM29 562c45 -66 126 -66 174 -4c48 63 -4 155 -107 133
c-75 -16 -102 -77 -67 -129z" />
    <glyph glyph-name="k" unicode="k" horiz-adv-x="474" 
d="M-5 508l-4 -3c3 -48 5 -91 6 -135c3 -64 6 -129 8 -207c2 -66 15 -161 84 -177c27 -6 67 0 90 14c43 28 15 107 21 123c22 -14 38 -41 58 -64c24 -27 55 -50 111 -44c33 4 56 29 60 66c0 84 -98 88 -114 157c0 28 13 59 33 86c34 47 134 98 79 150
c-67 63 -138 -27 -173 -81c-15 -24 -34 -54 -48 -64c-10 14 -16 106 -16 107c-7 64 -22 119 -51 169c-11 20 -43 55 -74 56c-72 0 -72 -96 -70 -153z" />
    <glyph glyph-name="l" unicode="l" horiz-adv-x="323" 
d="M276 374l-1 -1c2 110 4 331 -135 317c-157 -15 -135 -218 -123 -346c7 -80 11 -354 133 -344c130 9 125 275 126 374z" />
    <glyph glyph-name="m" unicode="m" horiz-adv-x="607" 
d="M573 252c-5 74 -10 197 -101 206c-90 8 -116 -43 -128 -85c-9 57 -55 83 -90 78c-58 -10 -78 -72 -82 -98c-14 54 -32 85 -84 75c-70 -14 -88 -145 -88 -204c0 -109 39 -219 100 -210c53 9 69 77 78 140c8 54 13 105 32 113c41 17 15 -79 26 -160c7 -54 15 -98 54 -97
c59 2 63 53 66 108c1 28 1 69 1 98c-1 9 -1 42 20 42c18 0 20 -51 20 -62c0 -79 -10 -188 74 -188c81 0 107 163 102 244z" />
    <glyph glyph-name="n" unicode="n" horiz-adv-x="512" 
d="M478 193v-3c0 152 -33 274 -181 273c-76 -1 -106 -34 -126 -67c-18 44 -58 56 -76 55c-93 -2 -79 -127 -82 -200c-3 -82 0 -257 112 -256c123 1 80 112 82 213c2 29 -1 156 51 157c62 2 46 -90 51 -184c5 -106 4 -162 69 -168c85 -8 100 122 100 180z" />
    <glyph glyph-name="o" unicode="o" horiz-adv-x="435" 
d="M400 218v-1c4 140 -55 245 -201 243c-141 -2 -193 -121 -194 -240c-2 -181 108 -226 213 -218c126 11 176 49 182 216z" />
    <glyph glyph-name="p" unicode="p" horiz-adv-x="454" 
d="M14 -149v-10c10 -93 4 -210 132 -184c75 15 94 42 104 120c12 105 -66 233 -70 299c-1 16 2 30 13 42c14 0 21 -13 29 -23c45 -125 143 -85 177 -9c38 85 19 196 -14 281c-30 76 -98 108 -177 96c-153 -24 -186 -175 -199 -255c-5 -29 -6 -58 -6 -98
c-2 -102 1 -175 11 -259z" />
    <glyph glyph-name="q" unicode="q" horiz-adv-x="477" 
d="M437 168l-1 -6c6 147 -43 259 -145 285c-47 12 -95 23 -170 -16c-104 -54 -132 -175 -118 -275c13 -92 63 -165 127 -157c69 10 72 85 93 80c45 -9 6 -81 0 -151c-6 -58 15 -117 90 -144c141 -53 121 297 124 384z" />
    <glyph glyph-name="r" unicode="r" horiz-adv-x="433" 
d="M128 7l-1 -1c82 14 75 108 73 179c-1 50 0 128 28 139c36 15 -7 -96 113 -70c39 9 69 53 68 92c-1 55 -53 124 -110 121c-59 -4 -104 -29 -141 -68c-10 40 -30 60 -85 62c-60 3 -81 -125 -71 -246c6 -65 29 -225 126 -208z" />
    <glyph glyph-name="s" unicode="s" horiz-adv-x="342" 
d="M156 459l-2 -2c-86 -10 -133 -59 -145 -136c-24 -173 149 -104 151 -163c1 -35 -164 26 -157 -96c3 -49 69 -71 112 -66c76 6 168 70 176 153c15 144 -135 123 -141 158c-9 55 134 17 143 80c10 75 -73 79 -137 72z" />
    <glyph glyph-name="t" unicode="t" horiz-adv-x="384" 
d="M111 726c-102 0 -94 -87 -100 -286c-4 -146 18 -440 167 -440c105 0 187 67 168 156c-24 112 -105 19 -137 9c-46 -14 -43 160 -40 195c55 3 106 16 111 58c6 56 -43 73 -103 61c7 183 15 247 -66 247z" />
    <glyph glyph-name="u" unicode="u" horiz-adv-x="548" 
d="M-5 192l-3 -5c9 -82 55 -202 156 -200c92 1 143 40 184 104c3 -47 29 -98 95 -93c56 3 76 71 83 140c6 57 8 141 2 199c-8 73 -33 148 -107 146c-56 -1 -71 -24 -80 -74c-4 -26 -7 -61 -14 -103c-9 -60 -29 -145 -77 -169c-39 -20 -53 19 -58 68c-5 53 2 119 3 139
c4 80 -1 140 -89 131c-108 -11 -96 -202 -95 -283z" />
    <glyph glyph-name="v" unicode="v" horiz-adv-x="439" 
d="M12 279l-1 -3c45 -249 71 -280 153 -279c97 1 123 64 166 158c64 140 110 272 12 297c-70 18 -100 -38 -121 -122c-16 -62 -26 -128 -44 -200c-8 55 -6 119 -13 184c-9 86 -32 158 -109 155c-57 -3 -68 -52 -43 -190z" />
    <glyph glyph-name="w" unicode="w" horiz-adv-x="757" 
d="M501 11l-2 -1c100 -12 140 94 173 167c18 42 35 84 45 127c15 62 29 155 -38 165c-55 9 -97 -61 -129 -128c-28 -57 -47 -103 -57 -128c-15 24 -35 56 -40 66c10 23 27 56 33 88c10 59 -19 76 -43 84c-33 11 -69 -6 -96 -58c-21 -40 -51 -103 -78 -140
c-44 77 -54 226 -194 207c-121 -16 -80 -118 -29 -264c38 -105 33 -192 151 -187c81 4 126 75 165 141c24 -69 53 -126 139 -139z" />
    <glyph glyph-name="x" unicode="x" horiz-adv-x="468" 
d="M275 37l-1 -1c19 -18 57 -48 107 -36c29 8 38 40 14 106c-16 44 -53 81 -81 118c17 22 42 52 63 82c42 64 67 131 -35 138c-36 2 -62 -17 -84 -42c-15 -17 -29 -37 -43 -54c-13 21 -38 52 -66 74c-34 26 -76 44 -118 30c-33 -12 -15 -67 11 -119c20 -41 45 -80 54 -94
l-57 -86c-28 -44 -76 -139 -8 -142c41 -2 82 -10 140 66c4 5 37 43 39 42c17 -28 42 -60 65 -82z" />
    <glyph glyph-name="y" unicode="y" horiz-adv-x="468" 
d="M-15 -222l-8 -17c31 -3 80 7 114 31c72 50 110 82 162 157c55 75 93 153 134 249c15 35 31 73 35 109c15 123 -114 120 -165 52c-25 -33 -37 -81 -65 -134v74c2 74 19 152 -88 153c-93 0 -110 -122 -89 -194c27 -94 50 -120 86 -199c-22 -44 -47 -71 -75 -93
c-27 -21 -55 -37 -87 -56c-31 -19 -72 -46 -44 -94c14 -22 48 -33 90 -38z" />
    <glyph glyph-name="z" unicode="z" horiz-adv-x="511" 
d="M1 72h-4c9 -56 65 -61 132 -62c49 -1 96 -1 144 0c116 2 171 15 190 83c15 58 -33 87 -78 84c-19 -1 -80 -4 -104 -9c41 22 108 85 135 116c32 35 61 74 63 106c3 32 -19 56 -86 62c-86 7 -173 8 -259 -2c-55 -7 -143 -31 -140 -99c3 -81 65 -85 140 -80
c23 2 112 18 148 16c-71 -58 -294 -124 -281 -215z" />
  </font>
</defs>
</svg>
