<svg xmlns="http://www.w3.org/2000/svg" viewBox="0 0 20.31 43.02"><title>num 8</title><g id="Layer_2" data-name="Layer 2"><g id="Layer_1-2" data-name="Layer 1"><path d="M15.64,17.32a53.14,53.14,0,0,1,1.67,5.52A45.19,45.19,0,0,1,18.15,30a11,11,0,0,1-.91,3.76,28.08,28.08,0,0,1-1.75,4,17.92,17.92,0,0,1-2.36,3.51,3.18,3.18,0,0,1-2.18,1c-1.18,0-2.31-.49-3.52.26-.36.22-1.34-.4-1.74-.95C3.77,39,2.16,36.14,2.85,32.32a8.06,8.06,0,0,0,0-1.92,14.42,14.42,0,0,1,4-11.2c.11-.12.22-.26.32-.39a1.55,1.55,0,0,0,.09-.28C6.55,18,5.77,17.43,5,16.8A13.53,13.53,0,0,1,.47,7.33,4.91,4.91,0,0,1,3,2.27,14.92,14.92,0,0,1,13.93.78a6.25,6.25,0,0,1,4.43,3.84A16.91,16.91,0,0,1,20.08,9c.44,3.42-1.41,5.62-3.48,7.55C16.27,16.86,15.91,17.1,15.64,17.32Z"/><path d="M15.64,17.32l1.23,3.46a24.13,24.13,0,0,1,.86,3.58c.22,1.21.39,2.42.51,3.64q.09.92.14,1.84a6,6,0,0,1-.19,1.89,32.06,32.06,0,0,1-2.76,6.86,15.84,15.84,0,0,1-2.14,3.09,3.63,3.63,0,0,1-1.79.94,6.69,6.69,0,0,1-1.94,0,3.08,3.08,0,0,0-1.6.17l-.17.09-.08,0L7.56,43a1,1,0,0,1-.76,0,3.21,3.21,0,0,1-.92-.53,3.29,3.29,0,0,1-.69-.76l-.53-.76c-.35-.52-.68-1-1-1.6a11.68,11.68,0,0,1-1.3-3.57,10.3,10.3,0,0,1-.14-1.92c0-.32,0-.64.07-1s.1-.65.12-.89a15.59,15.59,0,0,0-.07-1.77,15.67,15.67,0,0,1,0-1.89,14.29,14.29,0,0,1,.7-3.72A14.76,14.76,0,0,1,4.7,21.19a15.92,15.92,0,0,1,1.12-1.52c.19-.25.41-.47.62-.71s.44-.49.38-.57l.17.53c-.85-.68-1.73-1.3-2.57-2a12.54,12.54,0,0,1-2.16-2.56A14.86,14.86,0,0,1,.1,8.09a7,7,0,0,1,.24-3.4A5.17,5.17,0,0,1,2.54,2a14.58,14.58,0,0,1,6.28-2,15.66,15.66,0,0,1,3.3.08,11,11,0,0,1,3.22.81,6.35,6.35,0,0,1,2.51,2.21,8.77,8.77,0,0,1,.78,1.46l.67,1.46a9,9,0,0,1,1,3.14,7.08,7.08,0,0,1-.45,3.24,9.09,9.09,0,0,1-1.77,2.72A15.41,15.41,0,0,1,15.64,17.32Zm0,0a15.31,15.31,0,0,0,2.31-2.24,9,9,0,0,0,1.65-2.72,6.78,6.78,0,0,0,.33-3.12,8.6,8.6,0,0,0-1-3c-.24-.48-.49-1-.72-1.45a8.23,8.23,0,0,0-.77-1.36,5.77,5.77,0,0,0-2.32-2A10.39,10.39,0,0,0,12,.8a15,15,0,0,0-3.15,0,14.1,14.1,0,0,0-5.9,2A4.3,4.3,0,0,0,1.16,5,6.14,6.14,0,0,0,1,8,14,14,0,0,0,3,13.83a11.59,11.59,0,0,0,2,2.35c.79.68,1.68,1.3,2.52,2l.26.2-.08.33a2.17,2.17,0,0,1-.59,1c-.19.23-.4.44-.58.68a16.65,16.65,0,0,0-1.05,1.43A13.77,13.77,0,0,0,4,24.9a13.33,13.33,0,0,0-.67,3.47,14.73,14.73,0,0,0,0,1.78A15.81,15.81,0,0,1,3.35,32c0,.37-.09.63-.13.93s-.06.58-.07.87a9.39,9.39,0,0,0,.11,1.74,10.79,10.79,0,0,0,1.18,3.3c.28.52.6,1,.93,1.53l.51.74a2.37,2.37,0,0,0,.53.6,2.41,2.41,0,0,0,.66.39c.1,0,.21,0,.14,0l.06,0,.12-.06L7.63,42a3.89,3.89,0,0,1,2-.2,6.21,6.21,0,0,0,1.71.09,2.9,2.9,0,0,0,1.43-.71,15.33,15.33,0,0,0,2.08-2.89,31.53,31.53,0,0,0,2.83-6.66A10.33,10.33,0,0,0,17.84,28c-.08-1.21-.21-2.43-.39-3.63A40.13,40.13,0,0,0,15.64,17.32Z"/></g></g></svg>