<svg xmlns="http://www.w3.org/2000/svg" viewBox="0 0 20.47 42.79"><title>num 7</title><g id="Layer_2" data-name="Layer 2"><g id="Layer_1-2" data-name="Layer 1"><path d="M13.21,10.68c-.86,0-1.68,0-2.5,0-2.52-.05-5,0-7.55-.2C1.08,10.35.29,9.2.26,6.75A8.5,8.5,0,0,1,1.43,1.92C2.58.15,4.32.31,5.88.38A20.79,20.79,0,0,1,16.8,3.7C19.29,5.32,20,7.51,20,10.27c0,4.78-.34,9.57-.57,14.35-.11,2.28-.24,4.57-.51,6.84a11.74,11.74,0,0,1-.89,2.63c-.34.92-.7,1.82-1.07,2.72a21.56,21.56,0,0,1-1.36,3.24c-1.43,2.32-3,2.69-5.55,2a3.68,3.68,0,0,1-2.4-3.74,43.7,43.7,0,0,1,.89-6.51c.59-2.61,1.57-5.11,2.17-7.72.92-4,1.67-8.09,2.47-12.15A7.47,7.47,0,0,0,13.21,10.68Z"/><path d="M13.21,10.68c-2.41.07-4.77,0-7.17,0l-1.79,0a10.58,10.58,0,0,1-1.81-.1A2.74,2.74,0,0,1,.79,9.64,3.73,3.73,0,0,1,.1,7.88,11.46,11.46,0,0,1,.21,4.22,6.2,6.2,0,0,1,1.9.91,3.59,3.59,0,0,1,3.66.09,8.91,8.91,0,0,1,5.51,0,27,27,0,0,1,9.13.32,19.72,19.72,0,0,1,16,2.7,9.5,9.5,0,0,1,18.92,5,7.12,7.12,0,0,1,20.36,8.5a19.55,19.55,0,0,1,0,3.65l-.13,3.59L20,22.91c0,1.19-.11,2.39-.22,3.59l-.28,3.59c-.06.62-.05,1.16-.18,1.83a10.27,10.27,0,0,1-.63,1.77L17.39,37a19.82,19.82,0,0,1-1.45,3.36,6.35,6.35,0,0,1-1.23,1.47,3.85,3.85,0,0,1-1.79.87,5.51,5.51,0,0,1-1.93,0c-.31-.05-.61-.12-.91-.2a3.07,3.07,0,0,1-.94-.4,4.22,4.22,0,0,1-1.85-3.35,40,40,0,0,1,1-7.18c.57-2.35,1.43-4.59,2-6.88s1-4.66,1.56-7l.77-3.5.39-1.75a4.7,4.7,0,0,0,.16-.88Zm0,0,0,.9a4.74,4.74,0,0,1-.12.89l-.32,1.76-.66,3.52c-.45,2.35-.85,4.7-1.35,7.05s-1.39,4.59-1.9,6.9a39.88,39.88,0,0,0-.86,7,3.43,3.43,0,0,0,1.53,2.67,2.34,2.34,0,0,0,.71.29c.28.07.56.13.84.18a4.67,4.67,0,0,0,1.63,0,3.85,3.85,0,0,0,2.44-2,19.46,19.46,0,0,0,1.35-3.22l1.3-3.35a9.51,9.51,0,0,0,.57-1.61c.1-.5.1-1.16.15-1.73.14-2.38.39-4.73.45-7.12l.3-7.15.15-3.58a19,19,0,0,0,0-3.51,6.21,6.21,0,0,0-1.24-3.07,8.65,8.65,0,0,0-2.66-2.11A20,20,0,0,0,9,1.08,26.25,26.25,0,0,0,5.49.71a4.33,4.33,0,0,0-3.18.68,5.66,5.66,0,0,0-1.55,3A11.21,11.21,0,0,0,.58,7.81a3.28,3.28,0,0,0,.55,1.56,2.33,2.33,0,0,0,1.38.83,10.49,10.49,0,0,0,1.75.15l1.79.07C8.43,10.51,10.84,10.65,13.21,10.68Z"/></g></g></svg>