<svg xmlns="http://www.w3.org/2000/svg" viewBox="0 0 21.2 42.76"><title>num 9</title><g id="Layer_2" data-name="Layer 2"><g id="Layer_1-2" data-name="Layer 1"><path d="M15.43,17.3c-1.72,1.36-3.29,2.51-4.8,3.82A6.3,6.3,0,0,1,4.8,22.52c-1.68-.37-3-1.85-3.63-4.13A19.86,19.86,0,0,1,2.22,4.19,4.27,4.27,0,0,1,5.6,1.56a4.83,4.83,0,0,0,1.23-.22c3.24-1.47,6.42-1,9.61.41,2.84,1.28,4,3.39,3.8,7.71a15.52,15.52,0,0,0,.33,4.93,10.58,10.58,0,0,1,0,3c-.32,7.83-2.89,13.89-7,18.64a60.22,60.22,0,0,1-5.46,5.68,3.81,3.81,0,0,1-2.76.64c-.38,0-.84-.89-1.09-1.52a10.84,10.84,0,0,1-.9-5.63A8.56,8.56,0,0,1,4.33,32a43.38,43.38,0,0,1,3.92-4.72c1.47-1.6,3-3,4.51-4.6A13.82,13.82,0,0,0,15.43,17.3Z"/><path d="M15.43,17.3c-1,.84-2.07,1.69-3.07,2.53l-1.5,1.24a8,8,0,0,1-1.63,1.15,6.44,6.44,0,0,1-3.94.58,4.37,4.37,0,0,1-1.93-.68,5.13,5.13,0,0,1-1.44-1.47,19,19,0,0,1-.48-15.6A10.35,10.35,0,0,1,2.31,3.2,4.46,4.46,0,0,1,3.87,1.72a5.19,5.19,0,0,1,2-.62A2.16,2.16,0,0,0,6.74.92c.31-.14.63-.27,1-.38A10.27,10.27,0,0,1,11.76,0a13.7,13.7,0,0,1,4,.93A7.91,7.91,0,0,1,19.2,3.2a7.23,7.23,0,0,1,1.46,3.9,33.23,33.23,0,0,1,0,4A13.82,13.82,0,0,0,20.8,13a9,9,0,0,0,.17.92,5.79,5.79,0,0,1,.21,1,13.45,13.45,0,0,1-.05,2L21,19a38,38,0,0,1-.56,4,29.73,29.73,0,0,1-2.59,7.57,29.62,29.62,0,0,1-4.57,6.56c-.88,1-1.77,2-2.71,2.91q-.7.7-1.44,1.38L8.39,42a2.76,2.76,0,0,1-1,.54,4.41,4.41,0,0,1-1.07.17H5.54a1.38,1.38,0,0,1-.35,0,1.25,1.25,0,0,1-.54-.44,3.58,3.58,0,0,1-.3-.46,6.76,6.76,0,0,1-.43-.95A12.84,12.84,0,0,1,3,36.93a9,9,0,0,1,.13-2,13.92,13.92,0,0,1,.44-2A4.65,4.65,0,0,1,4,32c.2-.31.39-.55.59-.83.4-.53.82-1,1.25-1.55,1.73-2,3.61-3.87,5.51-5.68a12.94,12.94,0,0,0,2.53-3A20.6,20.6,0,0,0,15.43,17.3Zm0,0A20.67,20.67,0,0,1,14,21a13.07,13.07,0,0,1-2.48,3.09C9.69,26,7.88,27.87,6.22,29.9c-.41.51-.82,1-1.2,1.55-.18.26-.39.54-.55.79a4.12,4.12,0,0,0-.35.85A13.4,13.4,0,0,0,3.74,35a8.34,8.34,0,0,0-.09,1.9,12.19,12.19,0,0,0,.93,3.72,6.06,6.06,0,0,0,.4.85,1.6,1.6,0,0,0,.45.55h.85a3.65,3.65,0,0,0,.88-.15,2,2,0,0,0,.72-.4l.71-.66q.71-.67,1.39-1.38c.91-.94,1.79-1.9,2.66-2.89a28.72,28.72,0,0,0,4.4-6.4,28.79,28.79,0,0,0,2.47-7.35A37,37,0,0,0,20,18.91l.11-2a13.27,13.27,0,0,0,0-1.9,4.88,4.88,0,0,0-.18-.9,10,10,0,0,1-.18-1,14.79,14.79,0,0,1-.1-2,32.74,32.74,0,0,0,0-3.89,6.3,6.3,0,0,0-1.23-3.41,7,7,0,0,0-3.09-2A10.58,10.58,0,0,0,8,1.37c-.3.1-.59.22-.88.34A3,3,0,0,1,6,1.95a4.54,4.54,0,0,0-1.72.5A3.64,3.64,0,0,0,3,3.64a9.69,9.69,0,0,0-.83,1.7A19.93,19.93,0,0,0,.64,12.91,19.54,19.54,0,0,0,1,16.77a10.84,10.84,0,0,0,1.28,3.62,4.13,4.13,0,0,0,3,2A6.12,6.12,0,0,0,9.11,22a7.75,7.75,0,0,0,1.62-1.07l1.59-1.22C13.38,18.89,14.42,18.1,15.43,17.3Z"/></g></g></svg>