<svg xmlns="http://www.w3.org/2000/svg" viewBox="0 0 22 41.74"><title>num 1</title><g id="Layer_2" data-name="Layer 2"><g id="Layer_1-2" data-name="Layer 1"><path d="M21.6,9.31a30.47,30.47,0,0,0-1.54-6.82A2.92,2.92,0,0,0,17,.17l-.32.05L16.23.13a4.45,4.45,0,0,0-3.48.56A12.71,12.71,0,0,0,8,5.9L8,6c-.67.78-1.34,1.56-2,2.31A44.25,44.25,0,0,0,.84,14.07a4.41,4.41,0,0,0-.68,2.44,4.86,4.86,0,0,0,1.27,4.74,5.09,5.09,0,0,0,7.07,0c1.09-1.08,2.17-2.18,3.21-3.32,0,.16,0,.32,0,.48.39,5.26.65,10.53,1.23,15.76a20.51,20.51,0,0,0,1.83,6.1c.86,1.88,2.77,1.93,4.06.34A5.76,5.76,0,0,0,20,38.68a33.43,33.43,0,0,0,1.26-5.2A125.1,125.1,0,0,0,21.6,9.31Z"/></g></g></svg>