<svg xmlns="http://www.w3.org/2000/svg" viewBox="0 0 20.71 43.15"><title>num 5</title><g id="Layer_2" data-name="Layer 2"><g id="Layer_1-2" data-name="Layer 1"><path d="M20.2,30.22c0,4-.84,6.57-2.74,8.42-2.73,2.66-5.73,4.41-9.18,4.43A5.47,5.47,0,0,1,4,41a5.43,5.43,0,0,1-1.07-4.82,3.2,3.2,0,0,1,3.12-2.37c1.16,0,2.33-.09,3.49,0a3.75,3.75,0,0,0,3.1-1.48,3.05,3.05,0,0,0,.63-1.78c0-2.22-1.81-4.64-3.49-4.84s-3.31-.35-5-.6a17.77,17.77,0,0,1-2.49-.66,2.63,2.63,0,0,1-1.8-2.62A94.58,94.58,0,0,1,.66,12a10.16,10.16,0,0,1,5.9-8.73A32.07,32.07,0,0,1,13.66.54,9.1,9.1,0,0,1,18.13,1c1.74.49,2.45,2.23,2.23,4.7a2.75,2.75,0,0,1-2.8,2.88c-2.11.13-4.23.21-6.35.18C9.9,8.71,9,9.32,8.61,11c-.36,1.4-.77,2.77-1.08,4.18a1.69,1.69,0,0,0,.75,1.94c1.4.76,2.79,1.88,4.24,2.07,2.93.4,4.46,3.08,6.13,5.66A9.4,9.4,0,0,1,20.2,30.22Z"/><path d="M20.2,30.22a18.26,18.26,0,0,1-.45,4.32,8.54,8.54,0,0,1-2,3.83,15.24,15.24,0,0,1-7.32,4.52,7.07,7.07,0,0,1-4.33-.16,5.9,5.9,0,0,1-1.82-1.24A5.36,5.36,0,0,1,3,39.66a6.13,6.13,0,0,1-.49-2.17,3.91,3.91,0,0,1,.55-2.18,3.39,3.39,0,0,1,1.67-1.54,3.41,3.41,0,0,1,1.14-.23l1.09,0c.72,0,1.45-.06,2.19,0a3.22,3.22,0,0,0,2-.34,4.16,4.16,0,0,0,1.45-1.34,2.76,2.76,0,0,0,.29-1.9,5.39,5.39,0,0,0-2.06-3.38,2.93,2.93,0,0,0-.85-.41c-.26-.06-.68-.09-1-.13l-2.17-.25-2.17-.26a17.08,17.08,0,0,1-2.16-.57,3.44,3.44,0,0,1-1.12-.51,2.93,2.93,0,0,1-.84-1,4.61,4.61,0,0,1-.44-2.32C0,18.22-.07,15.3.13,12.38A12.42,12.42,0,0,1,1.16,8,10.1,10.1,0,0,1,3.93,4.43,16.59,16.59,0,0,1,7.77,2.17,32.74,32.74,0,0,1,11.88.59,16.94,16.94,0,0,1,14,0a7.44,7.44,0,0,1,2.29.1,16,16,0,0,1,2.17.56,3.15,3.15,0,0,1,1.74,1.63,5.42,5.42,0,0,1,.47,2.25,6.62,6.62,0,0,1-.29,2.25,2.76,2.76,0,0,1-1.6,1.71,6.15,6.15,0,0,1-2.23.27l-4.36.08a6.73,6.73,0,0,0-2.08.19A2.36,2.36,0,0,0,8.89,10.6c-.4,1.36-.76,2.79-1.14,4.18a1.93,1.93,0,0,0,.22,2,4,4,0,0,0,.88.59l.93.57a10.83,10.83,0,0,0,1.91,1c.66.26,1.42.25,2.1.56A7.9,7.9,0,0,1,17,22.31c.43.59.82,1.2,1.21,1.81A14.85,14.85,0,0,1,19.32,26,9,9,0,0,1,20.2,30.22Zm0,0a9,9,0,0,0-.92-4.2,14.81,14.81,0,0,0-1.1-1.87c-.39-.61-.79-1.21-1.22-1.8a7.81,7.81,0,0,0-3.22-2.79c-.66-.3-1.4-.29-2.1-.55A11,11,0,0,1,9.7,18l-.93-.56a4.23,4.23,0,0,1-.93-.6,2.12,2.12,0,0,1-.31-2.14c.36-1.41.67-2.81,1.06-4.23A2.7,2.7,0,0,1,10,8.75a2.94,2.94,0,0,1,1.13-.22l1.09,0,4.33-.17A5.77,5.77,0,0,0,18.62,8a2.17,2.17,0,0,0,1.24-1.4,6.05,6.05,0,0,0,.21-2,4.77,4.77,0,0,0-.45-2A2.43,2.43,0,0,0,18.25,1.4a15.58,15.58,0,0,0-2-.48,6.65,6.65,0,0,0-2,0,19.17,19.17,0,0,0-2,.54A31.87,31.87,0,0,0,8.14,3,15.71,15.71,0,0,0,4.53,5.15,9.14,9.14,0,0,0,2,8.4a11.57,11.57,0,0,0-.91,4C.91,15.31.95,18.2,1,21.1A3.74,3.74,0,0,0,1.32,23a2.09,2.09,0,0,0,1.43,1.05,16.34,16.34,0,0,0,2,.56l2.14.28,2.15.28c.37.06.68.07,1.13.18a3.7,3.7,0,0,1,1.09.55,6.1,6.1,0,0,1,2.28,3.91,3.42,3.42,0,0,1-.41,2.31,3.81,3.81,0,0,1-.78.89,4.63,4.63,0,0,1-1,.66A3.8,3.8,0,0,1,9.17,34C8.46,34,7.74,34,7,34a6,6,0,0,0-2.07.18,3,3,0,0,0-1.48,1.32,4.42,4.42,0,0,0-.12,4,5.7,5.7,0,0,0,2.88,3,6.72,6.72,0,0,0,4.21.22,15.14,15.14,0,0,0,7.3-4.43,8.48,8.48,0,0,0,2-3.79A18.25,18.25,0,0,0,20.2,30.22Z"/></g></g></svg>