<svg xmlns="http://www.w3.org/2000/svg" viewBox="0 0 20.05 41.94"><title>num 4</title><g id="Layer_2" data-name="Layer 2"><g id="Layer_1-2" data-name="Layer 1"><path d="M13.82,14.94c0-3.07-.06-6,0-8.94a14.25,14.25,0,0,1,.67-3.67,2.63,2.63,0,0,1,2.78-2c1.22.06,1.79,1,2,2.18a19.62,19.62,0,0,1,.55,3.8,65.06,65.06,0,0,1-1.18,12.49c-.66,3.78-.39,7.8-.25,11.7.11,3,.38,6.05-.65,9a2.84,2.84,0,0,1-2.39,2.21c-2.06.23-3.08-.78-2.89-3a8.67,8.67,0,0,1,.62-3A10.51,10.51,0,0,0,14,30.39c-.12-2.46-.22-4.92-.32-7.18-2.58,0-5.08.09-7.58,0C3.2,23.06,1,21.4.41,18.74a15.45,15.45,0,0,1-.07-4.86C.81,10,1.48,6.15,2,2.29c.17-1.14.78-2,1.73-2.14a2,2,0,0,1,2.1,1.69,19.3,19.3,0,0,1,.62,3.95c0,2.75-.05,5.51-.18,8.26-.06,1.27.36,1.66,1.47,1.52C9.72,15.32,11.67,15.16,13.82,14.94Z"/><path d="M13.82,14.94l0-5.08V7.34a16.9,16.9,0,0,1,.09-2.53,16,16,0,0,1,.54-2.48A2.83,2.83,0,0,1,16.07.4,3,3,0,0,1,17.36.21a2,2,0,0,1,1.22.5,4.12,4.12,0,0,1,1,2.35A20.4,20.4,0,0,1,20,5.57c.06.85,0,1.7,0,2.54,0,1.69-.16,3.38-.34,5.06-.31,3.38-1.2,6.67-1.21,10s.18,6.73.29,10.11a19.39,19.39,0,0,1-.42,5.09,6.87,6.87,0,0,1-1,2.41,2.69,2.69,0,0,1-1.06.86,3.41,3.41,0,0,1-1.32.26,3.14,3.14,0,0,1-1.33-.22,2.1,2.1,0,0,1-1-.94,4.59,4.59,0,0,1-.28-2.62,7.85,7.85,0,0,1,.57-2.54,8.92,8.92,0,0,0,.75-2.34,23.84,23.84,0,0,0,.06-5l-.21-5.06.22.21-7.37,0a7,7,0,0,1-3.6-1A5.43,5.43,0,0,1,.42,19.48a16.54,16.54,0,0,1,0-7.38L1.52,4.82,1.79,3a5.76,5.76,0,0,1,.44-1.82A2,2,0,0,1,3.73,0,2,2,0,0,1,5.48.74,14.11,14.11,0,0,1,6.54,8l-.11,3.68-.05,1.84c0,.6-.14,1.27.23,1.74s1.13.23,1.71.2l1.83-.18Zm0,0-3.65.4-1.83.2c-.31,0-.61.08-.92.09a1.11,1.11,0,0,1-.88-.3c-.42-.54-.26-1.23-.28-1.82l0-1.84L6.34,8a22,22,0,0,0-.1-3.66c-.09-.6-.21-1.2-.34-1.8A3.44,3.44,0,0,0,5.27.91,1.7,1.7,0,0,0,3.76.29a1.7,1.7,0,0,0-1.27,1A5.51,5.51,0,0,0,2.08,3L1.82,4.87.77,12.15a16.26,16.26,0,0,0,0,7.21A5,5,0,0,0,3,22.07,6.65,6.65,0,0,0,6.37,23h7.57v.21l.24,5.06a24.21,24.21,0,0,1,0,5.11,9.05,9.05,0,0,1-.79,2.46,7.42,7.42,0,0,0-.54,2.38A4.17,4.17,0,0,0,13,40.55a2,2,0,0,0,1.94.93,2.39,2.39,0,0,0,2-.93,6.49,6.49,0,0,0,.92-2.24,19,19,0,0,0,.43-5C18.28,30,18,26.59,18.13,23.2a31.56,31.56,0,0,1,.53-5.06c.29-1.66.54-3.33.73-5s.32-3.35.36-5c0-.84,0-1.69,0-2.52a20.14,20.14,0,0,0-.38-2.48A3.92,3.92,0,0,0,18.41.89,2.24,2.24,0,0,0,16.14.6,2.63,2.63,0,0,0,14.6,2.37,15.84,15.84,0,0,0,14,4.83a17,17,0,0,0-.12,2.52l0,2.54Z"/></g></g></svg>